<svg xmlns="http://www.w3.org/2000/svg" version="1.1" xmlns:xlink="http://www.w3.org/1999/xlink" xmlns:svgjs="http://svgjs.dev/svgjs" width="1000" height="1125" viewBox="0 0 1000 1125"><g transform="matrix(1,0,0,1,1.7053025658242404e-13,0)"><svg viewBox="0 0 320 360" data-background-color="#ffffff" preserveAspectRatio="xMidYMid meet" height="1125" width="1000" xmlns="http://www.w3.org/2000/svg" xmlns:xlink="http://www.w3.org/1999/xlink"><g id="tight-bounds" transform="matrix(1,0,0,1,0,0)"><svg viewBox="0 0 320 360" height="360" width="320"><g><svg></svg></g><g><svg viewBox="0 0 320 360" height="360" width="320"><g><path xmlns="http://www.w3.org/2000/svg" d="M20.961 227.22l3.726 4.658-1.863-6.056c-0.466-2.795-3.726 0.466-1.863 1.398M25.153 224.425c1.397 2.329 2.795 4.658 2.795 6.987 0 3.261 2.795 4.658 5.123 5.589-3.261-3.726-5.124-13.974-7.918-12.576M204.017 26.929c7.918 0 15.371-0.932 23.756 0.931 20.495 5.124 37.729 15.371 49.374 29.811l32.606 52.169c1.397 13.042 4.192 27.482 3.726 43.319 3.261 0 2.795-4.658 6.521-5.59-3.726 9.316-5.59 20.961-6.521 34.469-2.329-7.453 0-18.632 0.466-24.687-3.261 5.124-5.124 1.397-5.124-0.932 0.466-3.726-1.397-3.261-2.795-4.658-5.124-4.658-8.384-9.782-12.11-17.7 2.329-6.055 2.795-14.905-4.658-19.563-2.329-1.397-5.124-3.726-6.521-7.453-1.863-5.124-5.124-11.179-4.193-19.097 0.466-2.329-6.987 5.124-11.179 1.863-18.166-12.576-36.332-27.016-58.224-39.127-11.645 0-20.029-4.192-24.221-9.316-3.726-4.658-0.932-10.713 4.658-11.179 3.261 0 6.987-0.932 9.782 0.932 0.466-1.863 2.329-4.192 4.657-4.192M157.904 16.215l0.932 0.466c4.658 0.932 6.987 7.453 12.11 5.124 0 3.261 0.466 6.521-0.466 8.85-1.397 3.726-5.59 3.726-8.85 3.726-31.208-1.863-49.374 11.179-68.471 22.358-5.124 3.261-10.713 5.59-14.906 9.782-20.029 18.632-41.921 35.866-47.045 70.335l-4.192 38.195c-0.466 4.192-5.124 8.384-4.192 13.508l3.26 22.824c-3.261-3.261-5.124 0.932-4.192 2.795 0.466 1.397 2.329 6.055 5.124 1.863 3.726 6.987 7.453 20.495 12.576 26.55 15.837 18.632 36.332 35.4 53.101 52.169 4.192-0.932 7.453-0.932 8.384-3.727 1.397 2.795-1.397 5.59-3.726 6.056 7.453 4.658 15.837 8.85 27.016 9.781 14.44 0.932 27.948 3.261 40.524 6.522 6.521-1.863 13.042-2.795 20.029-3.261 2.329 0 3.726-3.726 6.521-4.658l0.466-4.658c2.795 4.192 2.329-1.397 0.466-4.192 3.261 2.795 4.192 5.124 5.589 6.987 0-1.397 3.726-6.521 3.727-0.466l0.931-6.055c1.397-0.932 1.863 5.124 3.261 0.931 1.397-4.192 4.192-0.932 6.987-2.329-0.932 1.863-0.466 5.59 2.794 3.261l3.727-3.261c2.329 5.59 6.055 3.261 7.918 2.329 20.495-13.042 40.99-28.413 60.553-43.784l-0.466 6.055 2.329-7.453c2.329 2.329 4.192 0.466 5.124-0.931 2.795-4.658 6.521-9.316 12.577-13.508-7.453 20.029-16.303 35.866-27.482 48.908l-4.658 5.59c0 3.261-0.932 7.453-4.658 7.918-1.863 0.466-5.59-0.932-8.384 1.863-1.397 1.863 3.261 5.59-0.466 2.795-3.261-2.329-6.521 0-10.248 0.932-2.795 0.932 1.863 3.726 2.795 5.589 0.932 1.863 1.863 3.726 1.398 6.056l-5.124-5.59c-6.055 3.261-9.782 9.316-14.906 13.974-2.329 1.863-1.397 5.124-1.397 7.918-3.261 0-6.987-0.932-8.85 0.932-1.397 1.863-0.932 4.658-0.932 7.453-4.658-0.466-5.124-7.453-9.315-6.056-4.192 0.932-8.85 1.397-12.577 3.727 2.795 5.59-4.658 2.329-3.726 3.26-6.987-4.192-13.042-7.453-20.495-4.658-15.837-5.124-35.4-2.795-49.84-0.931 0-2.329 0.466-4.658-0.466-5.124-0.932 2.329-3.726 1.397-3.26 1.397-8.85-6.055-17.7-9.782-27.016-14.905-8.384 0.932-16.303-3.261-18.632-5.59-6.521-6.055-13.974-2.795-20.029-4.192-13.042-3.261-17.7-16.769-19.098-26.084-0.932-4.658-4.658-6.521-6.055-6.056-6.055-19.563-15.371-37.263-22.824-55.429-1.863-4.658-1.397-9.316-1.397-14.44 2.329 0.932 4.658 0.466 4.192-2.794-2.329-15.371-7.918-27.016-13.974-38.195 3.261-15.837 3.726-34.469 11.179-48.443 6.521-12.576 18.632-19.098 27.016-29.811 2.795-3.726 2.795-8.85 5.59-12.11 9.316-9.316 18.632-19.098 28.879-27.482 4.658-3.726 10.247 0 17.234-1.397 2.329-8.384 11.645-15.837 20.495-13.508 3.726 0.932 11.179-8.85 13.508-9.782 3.726-1.397 1.863 3.726 1.863 6.987 8.85-6.987 20.961-10.713 32.14-14.906" fill="#755bb4" fill-rule="nonzero" stroke="none" stroke-width="1" stroke-linecap="butt" stroke-linejoin="miter" stroke-miterlimit="10" stroke-dasharray="" stroke-dashoffset="0" font-family="none" font-weight="none" font-size="none" text-anchor="none" style="mix-blend-mode: normal" data-fill-palette-color="tertiary"></path></g><g transform="matrix(1,0,0,1,64,127.69113149847095)"><svg viewBox="0 0 192 104.61773700305811" height="104.61773700305811" width="192"><g><svg viewBox="0 0 192 104.61773700305811" height="104.61773700305811" width="192"><g><svg viewBox="0 0 192 104.61773700305811" height="104.61773700305811" width="192"><g><svg viewBox="0 0 192 104.61773700305811" height="104.61773700305811" width="192"><g id="textblocktransform"><svg viewBox="0 0 192 104.61773700305811" height="104.61773700305811" width="192" id="textblock"><g><svg viewBox="0 0 192 104.61773700305811" height="104.61773700305811" width="192"><g transform="matrix(1,0,0,1,0,0)"><svg width="192" viewBox="2.5 -35 98.08999633789062 53.453125" height="104.61773700305811" data-palette-color="#755bb4"><path d="M3.85-23.65Q3.05-25.75 2.78-26.65 2.5-27.55 2.5-28.45L2.5-28.45Q2.5-29.1 2.68-30.15 2.85-31.2 3.15-32.5L3.15-32.5 4.1-32.55Q4.45-32.55 4.7-32.4L4.7-32.4 5.55-31.75Q7.05-30.5 7.8-29.65 8.55-28.8 8.85-27.3L8.85-27.3Q9.5-24.25 10.38-21.9 11.25-19.55 12.9-17.65L12.9-17.65Q14.1-16.25 15.03-15.58 15.95-14.9 17.5-14.95L17.5-14.95Q18.25-16.45 18.6-17.25L18.6-17.25 19.95-20.55Q23.65-29.55 24.6-31.7L24.6-31.7Q25-32.65 26.05-34.1L26.05-34.1Q26.3-34.4 26.7-35L26.7-35Q28.35-34.35 29.23-33.08 30.1-31.8 30.1-30.15L30.1-30.15Q30.1-29.05 29.75-28.05L29.75-28.05Q28.9-25.6 26.95-21.55L26.95-21.55Q26.6-20.8 26.28-20.2 25.95-19.6 25.7-19.1L25.7-19.1Q24.6-17 24.4-16.6L24.4-16.6 23.05-13.6Q21.5-9.9 20.2-7.75L20.2-7.75 19.5-6.65Q17-2.55 15.13 0.08 13.25 2.7 10.65 5.05L10.65 5.05Q10.55 4.7 10.33 4.23 10.1 3.75 10.15 3.55L10.15 3.55Q11.75-0.5 15.05-8.6L15.05-8.6Q15.3-9.25 16-11.4L16-11.4Q6.95-15.2 3.85-23.65L3.85-23.65ZM43.95-3.35Q42.4-2.4 40.4-2.4L40.4-2.4Q38.2-2.4 36.17-3.53 34.15-4.65 32.95-6.75 31.75-8.85 31.95-11.55L31.95-11.55 32.2-12.75Q32.5-14.55 32.7-15.4L32.7-15.4Q33.15-17.25 34.5-18 35.85-18.75 38.1-19.2L38.1-19.2Q39.55-19.5 40.95-19.5L40.95-19.5Q45.35-19.5 48.35-16.55L48.35-16.55Q49.95-14.95 49.95-12.65L49.95-12.65Q49.95-10.4 48.3-7.8L48.3-7.8Q46.4-4.85 43.95-3.35L43.95-3.35ZM39.75-16.95Q38.95-15 38.05-12.1L38.05-12.1 37.55-10.6 37.9-10.45Q37.9-10.1 37.92-9.38 37.95-8.65 38.1-8.15L38.1-8.15Q38.65-6.6 39.35-6.25L39.35-6.25Q39.65-6.1 40.22-6.4 40.8-6.7 41.25-7.1L41.25-7.1Q41.95-7.7 43.5-9.6L43.5-9.6Q44.65-10.9 44.65-12.7L44.65-12.7Q44.65-14.25 43.77-15.5 42.9-16.75 41.35-17.2L41.35-17.2Q41.2-17.25 40.8-17.25L40.8-17.25Q39.85-17.25 39.75-16.95L39.75-16.95ZM61.84-18.85Q61.84-18.55 61.74-18.07 61.64-17.6 61.7-17.45L61.7-17.45Q65.14-18.2 67.55-18.2L67.55-18.2Q71.3-18.2 73.19-14.6L73.19-14.6Q74.75-11.55 74.75-7.85L74.75-7.85Q74.75-6.9 74.55-5.1L74.55-5.1Q74.39-3.9 73.59-3.18 72.8-2.45 71.69-2.45L71.69-2.45Q70.55-2.45 70.07-2.88 69.59-3.3 69.52-3.85 69.44-4.4 69.44-5.6L69.44-5.6 69.39-6.65Q69.3-9.65 69-11.85L69-11.85Q68.84-12.75 68.32-13.13 67.8-13.5 66.94-13.5L66.94-13.5Q66.14-13.5 65.05-13.25L65.05-13.25Q63.34-12.8 62.77-12.55 62.2-12.3 61.09-11.5L61.09-11.5Q60.74-11.25 60.59-10.5 60.45-9.75 60.45-9.65L60.45-9.65Q59.8-6.45 59.05-2L59.05-2Q58.99-1.8 58.84-1.05 58.7-0.3 58.27 0.03 57.84 0.35 57.05 0.25L57.05 0.25Q53.89-0.15 53.84-2.4L53.84-2.4Q53.8-5.3 54.3-9.25L54.3-9.25Q54.64-12.1 54.95-13.85L54.95-13.85Q55.05-14.65 55.22-15.8 55.39-16.95 55.55-18.45L55.55-18.45Q55.7-19.6 55.84-20.15 55.99-20.7 56.55-21.08 57.09-21.45 58.24-21.45L58.24-21.45Q59.7-21.45 60.64-20.8 61.59-20.15 61.84-18.95L61.84-18.95 61.84-18.85ZM95.99-12.6Q95.84-9 95.49-7.15 95.14-5.3 94.12-3.63 93.09-1.95 90.79 0.25L90.79 0.25 92.54 1.2Q94.14 2.1 94.89 2.45L94.89 2.45Q97.14 3.5 98.29 5.13 99.44 6.75 99.44 8.7L99.44 8.7Q99.44 11.1 97.84 13.45L97.84 13.45Q96.14 15.95 93.59 17.18 91.04 18.4 88.14 18.45L88.14 18.45Q85.99 18.5 83.74 17.75L83.74 17.75Q82.69 17.4 81.64 16.23 80.59 15.05 79.97 13.6 79.34 12.15 79.39 11.05L79.39 11.05Q79.44 10.8 79.59 10.53 79.74 10.25 79.94 10.2L79.94 10.2Q79.99 10.15 80.14 10.15L80.14 10.15Q80.29 10.15 80.57 10.28 80.84 10.4 80.94 10.45L80.94 10.45Q81.19 10.55 81.29 10.9L81.29 10.9Q81.99 12.45 82.84 13.35 83.69 14.25 85.09 14.15L85.09 14.15Q90.24 13.8 92.14 11.3L92.14 11.3Q92.79 10.5 93.22 9.47 93.64 8.45 93.64 7.55L93.64 7.55Q93.64 6.25 93.02 5.65 92.39 5.05 91.09 4.8L91.09 4.8Q89.69 4.55 88.42 4.1 87.14 3.65 85.34 2.75L85.34 2.75Q84.44 2.3 84.09 1.95 83.74 1.6 83.74 1.1L83.74 1.1Q83.74 0.6 84.34-1.45L84.34-1.45Q84.44-1.75 83.42-2.45 82.39-3.15 81.64-3.6L81.64-3.6Q78.94-5.2 78.94-8.8L78.94-8.8Q78.94-9.8 79.09-10.7L79.09-10.7Q79.99-16.2 84.44-18.5L84.44-18.5Q85.49-19.05 86.64-19.05L86.64-19.05Q87.49-19.05 88.39-18.8 89.29-18.55 89.44-18.5L89.44-18.5 90.49-18.2Q91.24-18 91.94-18L91.94-18Q92.89-18 93.67-18.35 94.44-18.7 95.24-19.45L95.24-19.45Q96.39-20.4 97.69-20.4L97.69-20.4Q98.64-20.4 99.39-19.88 100.14-19.35 100.49-18.35L100.49-18.35Q100.59-17.95 100.59-17.7L100.59-17.7Q100.59-17.25 100.44-17L100.44-17Q100.29-16.8 99.59-15.7L99.59-15.7Q99.24-15.05 98.94-14.6 98.64-14.15 97.99-13.6L97.99-13.6Q97.54-13.35 97.04-13.23 96.54-13.1 96.27-13 95.99-12.9 95.99-12.6L95.99-12.6ZM85.49-13.35Q83.94-11.55 83.94-9.7L83.94-9.7Q83.94-8.4 84.77-7.23 85.59-6.05 87.29-5.2L87.29-5.2Q89.19-5.95 90.24-7.8 91.29-9.65 91.29-11.85L91.29-11.85Q91.29-13.2 90.89-14.3 90.49-15.4 89.29-16L89.29-16Q86.99-15.1 85.49-13.35L85.49-13.35Z" opacity="1" transform="matrix(1,0,0,1,0,0)" fill="#755bb4" class="wordmark-text-0" data-fill-palette-color="primary" id="text-0"></path></svg></g></svg></g></svg></g></svg></g><g></g></svg></g></svg></g></svg></g></svg></g><defs></defs></svg><rect width="320" height="360" fill="none" stroke="none" visibility="hidden"></rect></g></svg></g></svg>